<?xml version="1.0"?>
<svg xmlns="http://www.w3.org/2000/svg" xmlns:xlink="http://www.w3.org/1999/xlink" version="1.1" id="Capa_1" x="0px" y="0px" viewBox="0 0 415.007 415.007" style="enable-background:new 0 0 415.007 415.007;" xml:space="preserve" width="512px" height="512px" class=""><g><g>
	<g>
		<path d="M322.704,34.16h-107.2V8c0-4.418-3.582-8-8-8s-8,3.582-8,8v26.08h-107.2c-27.6,0-57.04,14.96-57.04,57.04v140.72    c0,42,29.44,57.04,57.04,57.04h33.52l-48.4,114.72c-1.881,3.998-0.164,8.764,3.834,10.644c3.998,1.881,8.764,0.164,10.644-3.834    c0.088-0.187,0.169-0.377,0.242-0.571l51.36-120.96h56v75.36c0,4.418,3.582,8,8,8s8-3.582,8-8v-75.36h56l51.36,120.88    c1.566,4.132,6.184,6.212,10.316,4.646c4.132-1.566,6.212-6.184,4.646-10.316c-0.073-0.193-0.154-0.384-0.242-0.571l-48.4-114.64    h33.52c42,0,57.04-29.44,57.04-57.04V91.12C379.744,49.12,350.224,34.16,322.704,34.16z M363.744,231.84    c0,15.28-5.36,41.04-41.04,41.04h-230.4c-15.36,0-41.04-5.36-41.04-41.04V91.12c0-35.68,25.68-41.04,41.04-41.04h230.4    c15.36,0,41.04,5.36,41.04,41.04V231.84z" data-original="#000000" class="active-path" data-old_color="#000000" fill="#21325E"/>
	</g>
</g><g>
	<g>
		<path d="M167.584,148.24l-18.4-44.32l-2.08-5.28c-0.53-1.321-1.2-2.582-2-3.76c-0.815-1.157-1.882-2.115-3.12-2.8    c-1.502-0.791-3.184-1.177-4.88-1.12c-1.67-0.051-3.325,0.335-4.8,1.12c-1.252,0.701-2.321,1.688-3.12,2.88    c-0.906,1.408-1.657,2.91-2.24,4.48l-1.84,4.64l-17.6,44.64c-0.693,1.76-1.2,3.147-1.52,4.16c-0.305,0.93-0.467,1.901-0.48,2.88    c0.033,1.656,0.758,3.223,2,4.32c1.231,1.23,2.9,1.921,4.64,1.92c1.705,0.162,3.381-0.526,4.48-1.84    c1.379-2.174,2.481-4.512,3.28-6.96l3.28-8.8h28.32l3.28,8.64l1.6,3.68c0.432,1.104,0.996,2.151,1.68,3.12    c0.538,0.677,1.222,1.224,2,1.6c0.878,0.401,1.836,0.592,2.8,0.56c1.807,0.023,3.544-0.701,4.8-2c1.246-1.127,1.97-2.72,2-4.4    C169.399,153.045,168.695,150.555,167.584,148.24z M126.864,134l10.16-28.32l10.32,28.32H126.864z" data-original="#000000" class="active-path" data-old_color="#000000" fill="#21325E"/>
	</g>
</g><g>
	<g>
		<path d="M222.944,124.48c6.268-2.38,10.388-8.416,10.32-15.12c0.016-1.935-0.309-3.858-0.96-5.68    c-0.653-1.813-1.629-3.494-2.88-4.96c-1.249-1.346-2.708-2.481-4.32-3.36c-1.992-1.179-4.192-1.967-6.48-2.32    c-2.831-0.449-5.694-0.663-8.56-0.64h-22.24c-2.34-0.217-4.67,0.502-6.48,2c-1.51,1.835-2.23,4.195-2,6.56v51.68    c-0.205,2.325,0.481,4.642,1.92,6.48c1.802,1.514,4.139,2.235,6.48,2h20.96c3.182,0.019,6.362-0.168,9.52-0.56    c2.47-0.294,4.891-0.913,7.2-1.84c3.291-1.409,6.08-3.779,8-6.8c1.979-3.104,3.008-6.719,2.96-10.4    C236.666,133.32,230.983,126.116,222.944,124.48z M193.344,102.56h11.28c3.835-0.211,7.673,0.361,11.28,1.68    c2.551,1.291,4.022,4.041,3.68,6.88c0.009,1.549-0.406,3.07-1.2,4.4c-0.927,1.743-2.465,3.083-4.32,3.76    c-2.599,0.74-5.299,1.064-8,0.96h-12.8L193.344,102.56z M222.144,140.16c0.16,6.827-4.48,10.24-13.92,10.24l0.08,0.16h-15.04    v-20.24h14.24c3.798-0.26,7.593,0.543,10.96,2.32C221.009,134.253,222.431,137.16,222.144,140.16z" data-original="#000000" class="active-path" data-old_color="#000000" fill="#21325E"/>
	</g>
</g><g>
	<g>
		<path d="M303.344,133.12c-2.329-0.718-4.863-0.069-6.56,1.68c-0.988,1.331-1.745,2.818-2.24,4.4    c-1.146,3.473-3.322,6.515-6.24,8.72c-2.984,2.045-6.544,3.082-10.16,2.96c-3.414,0.078-6.778-0.839-9.68-2.64    c-2.914-1.935-5.152-4.732-6.4-8c-1.536-4.116-2.269-8.488-2.16-12.88c-0.397-6.558,1.404-13.061,5.12-18.48    c3.231-4.261,8.336-6.68,13.68-6.48c3.202-0.071,6.351,0.821,9.04,2.56c2.762,2.096,4.961,4.845,6.4,8    c0.758,1.608,1.756,3.092,2.96,4.4c2.167,1.4,4.953,1.4,7.12,0c1.719-1.009,2.736-2.889,2.64-4.88    c0.043-3.617-1.142-7.142-3.36-10c-2.64-3.433-6.071-6.178-10-8c-4.617-2.303-9.722-3.456-14.88-3.36    c-4.408-0.039-8.782,0.776-12.88,2.4c-3.987,1.595-7.587,4.022-10.56,7.12c-3.044,3.217-5.386,7.031-6.88,11.2    c-1.674,4.779-2.487,9.817-2.4,14.88c-0.018,3.251,0.303,6.496,0.96,9.68c0.614,2.958,1.581,5.832,2.88,8.56    c1.232,2.614,2.791,5.06,4.64,7.28c1.887,2.266,4.13,4.212,6.64,5.76c2.484,1.477,5.183,2.556,8,3.2    c3.256,0.723,6.585,1.072,9.92,1.04c4.339-0.098,8.612-1.078,12.56-2.88c3.346-1.36,6.37-3.403,8.88-6    c2.142-2.181,3.876-4.728,5.12-7.52c1.005-2.242,1.55-4.663,1.6-7.12C307.164,136.245,305.657,134.001,303.344,133.12z" data-original="#000000" class="active-path" data-old_color="#000000" fill="#21325E"/>
	</g>
</g></g> </svg>
